<svg width="240" height="27" viewBox="0 0 240 27" fill="none" xmlns="http://www.w3.org/2000/svg">
<path fill-rule="evenodd" clip-rule="evenodd" d="M0 0H16.4701L15.0923 5.58546H6.08354V10.9553H14.5199V16.5623H6.08354V21.4792H15.6222L17 27H0V0Z" fill="#999999"/>
<path fill-rule="evenodd" clip-rule="evenodd" d="M41.9371 27H35.9161V14.5567L27 0H33.5874L38.8322 8.84185L44.4545 0H51L41.9371 14.4273V27Z" fill="#999999"/>
<path fill-rule="evenodd" clip-rule="evenodd" d="M61 0H77.4701L76.0923 5.58546H67.0835V10.9553H75.4988V16.5623H67.0835V21.4792H76.6222L78 27H61V0Z" fill="#999999"/>
<path fill-rule="evenodd" clip-rule="evenodd" d="M95.9243 25.8847C94.3058 25.1535 92.9185 24.1716 91.7414 22.9599C90.5644 21.7481 89.6395 20.3066 88.9879 18.6771C88.3153 17.0475 88 15.3135 88 13.4542C88 11.5948 88.3363 9.92349 88.9879 8.29395C89.6605 6.66441 90.5644 5.24379 91.7414 4.01118C92.9185 2.77858 94.3058 1.81756 95.9243 1.08636C97.5428 0.35515 99.2874 0 101.137 0C104.71 0 107.989 1.67132 110.932 5.03487L107.296 8.83714C106.035 7.45829 104.942 6.53906 103.996 6.07945C103.05 5.59894 102.104 5.36914 101.137 5.36914C100.17 5.36914 99.2874 5.57806 98.4466 5.975C97.6058 6.39283 96.8491 6.936 96.2186 7.64632C95.567 8.35663 95.0625 9.21319 94.7052 10.1951C94.3268 11.177 94.1587 12.2843 94.1587 13.4751C94.1587 14.6659 94.3478 15.7731 94.7052 16.7551C95.0625 17.737 95.567 18.5935 96.2186 19.3038C96.8702 20.0141 97.6058 20.5782 98.4466 20.9751C99.2874 21.393 100.191 21.581 101.137 21.581C102.083 21.581 103.134 21.3512 104.143 20.8707C105.152 20.3902 106.329 19.5127 107.674 18.2175L111.437 22.0824C108.158 25.3415 104.71 26.971 101.137 26.971C99.2874 26.971 97.5428 26.595 95.9243 25.8638V25.8847Z" fill="#999999"/>
<path fill-rule="evenodd" clip-rule="evenodd" d="M136.984 21.3399C136.503 21.5312 135.98 21.7033 135.394 21.8754C134.808 22.0283 134.222 22.1048 133.615 22.1048C133.009 22.1048 132.423 22.0283 131.879 21.8371C131.314 21.665 130.77 21.4738 130.205 21.2826L127.631 27H121.438L133.636 0L145.438 27H139.432L136.984 21.3399ZM131.753 16.7316C131.962 16.8081 132.276 16.9228 132.695 17.0949C133.113 17.2479 133.427 17.3244 133.636 17.3244C133.846 17.3244 134.159 17.2479 134.536 17.0949C134.934 16.9419 135.227 16.8272 135.436 16.7316L133.636 12.5439L131.774 16.7316H131.753Z" fill="#999999"/>
<path fill-rule="evenodd" clip-rule="evenodd" d="M168.452 5.54735V27H162.506V5.54735H156.789L155.438 0H175.437L174.169 5.54735H168.452Z" fill="#999999"/>
<path fill-rule="evenodd" clip-rule="evenodd" d="M193.362 25.8847C191.743 25.1535 190.335 24.1716 189.179 22.9599C188.002 21.7481 187.077 20.3066 186.425 18.6771C185.753 17.0475 185.438 15.3135 185.438 13.4542C185.438 11.5948 185.774 9.92349 186.425 8.29395C187.077 6.66441 188.002 5.24379 189.179 4.01118C190.356 2.77858 191.743 1.81756 193.362 1.08636C194.98 0.35515 196.725 0 198.575 0C202.148 0 205.427 1.67132 208.349 5.03487L204.712 8.83714C203.451 7.45829 202.358 6.53906 201.412 6.07945C200.466 5.59894 199.52 5.36914 198.554 5.36914C197.587 5.36914 196.704 5.57806 195.863 5.975C195.022 6.39283 194.266 6.936 193.635 7.64632C192.983 8.35663 192.479 9.21319 192.101 10.1951C191.743 11.177 191.554 12.2843 191.554 13.4751C191.554 14.6659 191.743 15.7731 192.101 16.7551C192.479 17.737 192.983 18.5935 193.635 19.3038C194.287 20.0141 195.022 20.5782 195.863 20.9751C196.704 21.393 197.608 21.581 198.554 21.581C199.499 21.581 200.55 21.3512 201.559 20.8707C202.568 20.3902 203.745 19.5127 205.091 18.2175L208.853 22.0824C205.574 25.3415 202.127 26.971 198.554 26.971C196.704 26.971 194.959 26.595 193.341 25.8638L193.362 25.8847Z" fill="#999999"/>
<path fill-rule="evenodd" clip-rule="evenodd" d="M233.71 16.5623H224.997V27H218.854V0H224.997V11.0415H233.71V0H239.854V27H233.71V16.5623Z" fill="#999999"/>
</svg>
